<svg width="110" height="110" xmlns="http://www.w3.org/2000/svg">

 <g>
  <title>background</title>
  <rect fill="none" id="canvas_background" height="402" width="582" y="-1" x="-1"/>
 </g>
 <g>
  <title>Layer 1</title>
  <circle id="svg_1" fill="#e0555a" r="55" cy="55" cx="55"/>
  <rect id="svg_3" fill="#FFFFFF" y="27" x="37" width="50" height="60"/>
  <path id="svg_5" fill="#FBE158" d="m65.724,73c0,4.418 3.582,8 8,8c4.418,0 8.416,-3.601 8,-8c-0.423,-4.476 -3.893,-8.042 -8,-8c-4.418,0.046 -8,3.582 -8,8z"/>
  <path id="svg_6" fill="#059BBF" d="m65.724,73c0,4.42 3.58,8 8,8c3.36,0 6.233,-2.067 7.42,-5l-14.78,-6.153c-0.413,0.966 -0.64,2.033 -0.64,3.153z"/>
  <path id="svg_7" fill="#4AC3AF" d="m65.712,73.003c0,2.82 1.46,5.3 3.667,6.727l4.327,-6.82l-7.353,-3.06c-0.414,0.967 -0.641,2.033 -0.641,3.153z"/>
  <path id="svg_8" fill="#FA5655" d="m66.364,69.847l7.36,3.067l0,-7.914c-3.3,0 -6.133,2 -7.36,4.847z"/>
  <rect id="svg_9" fill="#4AC3AF" y="40" x="77" width="4" height="18"/>
  <rect id="svg_10" fill="#4AC3AF" y="48" x="69.712" width="4" height="10"/>
  <circle id="svg_12" fill="#CFD3D4" r="1.5" cy="68.167" cx="60.333"/>
  <rect id="svg_13" fill="#CFD3D4" y="67.667" x="46.712" width="10" height="1"/>
  <circle id="svg_15" fill="#CFD3D4" r="1.5" cy="73.333" cx="60.333"/>
  <rect id="svg_16" fill="#CFD3D4" y="72.833" x="46.712" width="10" height="1"/>
  <circle id="svg_18" fill="#CFD3D4" r="1.5" cy="78.5" cx="60.333"/>
  <rect id="svg_19" fill="#CFD3D4" y="78" x="46.712" width="10" height="1"/>
  <path id="svg_20" fill="#84462D" d="m39.742,58.021l-10.798,10.798c-1.344,1.344 -3.522,1.344 -4.867,0s-1.344,-3.522 0,-4.867l10.823,-10.821c1.198,1.995 2.858,3.674 4.842,4.89z"/>
  <path id="svg_21" fill="#9C6144" d="m36.992,55.826l-12.951,12.951c-1.308,-1.344 -1.296,-3.492 0.03,-4.824l10.829,-10.828c0.589,0.979 1.295,1.885 2.092,2.701z"/>
  <path id="svg_22" fill="#FFFFFF" d="m47.4,60.1c-7.995,0 -14.5,-6.505 -14.5,-14.5s6.505,-14.5 14.5,-14.5s14.5,6.505 14.5,14.5s-6.504,14.5 -14.5,14.5z"/>
  <path id="svg_23" fill="#CFD3D4" d="m47.4,31.088c8.012,0 14.512,6.5 14.512,14.512s-6.5,14.512 -14.512,14.512c-8.041,0 -14.512,-6.561 -14.512,-14.512c0,-8.012 6.5,-14.512 14.512,-14.512m0,-1.988c-9.098,0 -16.5,7.402 -16.5,16.5s7.402,16.5 16.5,16.5s16.5,-7.402 16.5,-16.5s-7.401,-16.5 -16.5,-16.5l0,0z"/>
  <circle id="svg_24" fill="#6FDAF1" r="11.558" cy="45.6" cx="47.4"/>
  <path id="svg_25" fill="#9CE5F4" d="m47.4,34.042c-6.383,0 -11.558,5.175 -11.558,11.558c0,3.158 1.27,6.018 3.323,8.104l16.339,-16.339c-2.086,-2.054 -4.945,-3.323 -8.104,-3.323z"/>
 </g>
</svg>